<svg width="55" height="55" viewBox="0 0 55 55" fill="none" xmlns="http://www.w3.org/2000/svg">
<path d="M17.1875 27.5C17.1875 27.0442 17.3686 26.607 17.6909 26.2847C18.0132 25.9623 18.4504 25.7812 18.9062 25.7812H25.7812V18.9062C25.7812 18.4504 25.9623 18.0132 26.2847 17.6909C26.607 17.3686 27.0442 17.1875 27.5 17.1875C27.9558 17.1875 28.393 17.3686 28.7153 17.6909C29.0377 18.0132 29.2188 18.4504 29.2188 18.9062V25.7812H36.0938C36.5496 25.7812 36.9868 25.9623 37.3091 26.2847C37.6314 26.607 37.8125 27.0442 37.8125 27.5C37.8125 27.9558 37.6314 28.393 37.3091 28.7153C36.9868 29.0377 36.5496 29.2188 36.0938 29.2188H29.2188V36.0938C29.2188 36.5496 29.0377 36.9868 28.7153 37.3091C28.393 37.6314 27.9558 37.8125 27.5 37.8125C27.0442 37.8125 26.607 37.6314 26.2847 37.3091C25.9623 36.9868 25.7812 36.5496 25.7812 36.0938V29.2188H18.9062C18.4504 29.2188 18.0132 29.0377 17.6909 28.7153C17.3686 28.393 17.1875 27.9558 17.1875 27.5Z" fill="white"/>
<path fill-rule="evenodd" clip-rule="evenodd" d="M6.875 13.75C6.875 11.9266 7.59933 10.178 8.88864 8.88864C10.178 7.59933 11.9266 6.875 13.75 6.875H41.25C43.0734 6.875 44.822 7.59933 46.1114 8.88864C47.4007 10.178 48.125 11.9266 48.125 13.75V41.25C48.125 43.0734 47.4007 44.822 46.1114 46.1114C44.822 47.4007 43.0734 48.125 41.25 48.125H13.75C11.9266 48.125 10.178 47.4007 8.88864 46.1114C7.59933 44.822 6.875 43.0734 6.875 41.25V13.75ZM13.75 10.3125C12.8383 10.3125 11.964 10.6747 11.3193 11.3193C10.6747 11.964 10.3125 12.8383 10.3125 13.75V41.25C10.3125 42.1617 10.6747 43.036 11.3193 43.6807C11.964 44.3253 12.8383 44.6875 13.75 44.6875H41.25C42.1617 44.6875 43.036 44.3253 43.6807 43.6807C44.3253 43.036 44.6875 42.1617 44.6875 41.25V13.75C44.6875 12.8383 44.3253 11.964 43.6807 11.3193C43.036 10.6747 42.1617 10.3125 41.25 10.3125H13.75Z" fill="white"/>
</svg>
