<svg width="43" height="43" viewBox="0 0 46 45" fill="none" xmlns="http://www.w3.org/2000/svg">
<path d="M13.0607 0.939339C12.4749 0.353554 11.5251 0.353554 10.9393 0.939339L1.3934 10.4853C0.807611 11.0711 0.807611 12.0208 1.3934 12.6066C1.97919 13.1924 2.92893 13.1924 3.51472 12.6066L12 4.12132L20.4853 12.6066C21.0711 13.1924 22.0208 13.1924 22.6066 12.6066C23.1924 12.0208 23.1924 11.0711 22.6066 10.4853L13.0607 0.939339ZM13.5 43L13.5 2H10.5L10.5 43H13.5Z" fill="white"/>
<path d="M35.0607 44.0607C34.4749 44.6464 33.5251 44.6464 32.9393 44.0607L23.3934 34.5147C22.8076 33.9289 22.8076 32.9792 23.3934 32.3934C23.9792 31.8076 24.9289 31.8076 25.5147 32.3934L34 40.8787L42.4853 32.3934C43.0711 31.8076 44.0208 31.8076 44.6066 32.3934C45.1924 32.9792 45.1924 33.9289 44.6066 34.5147L35.0607 44.0607ZM35.5 2V43H32.5V2H35.5Z" fill="white"/>
</svg>
