<svg width="43" height="43" viewBox="0 0 40 46" fill="none" xmlns="http://www.w3.org/2000/svg">
<path d="M3.625 19.9375C3.625 16.7439 4.56241 13.6206 6.32099 10.9548C8.07957 8.28905 10.582 6.19811 13.5178 4.9413C16.4537 3.68449 19.6939 3.3171 22.8367 3.88468C25.9794 4.45227 28.8864 5.92986 31.1972 8.13422C33.508 10.3386 35.1209 13.1728 35.8359 16.2853C36.5509 19.3978 36.3366 22.6517 35.2195 25.6435C34.1024 28.6353 32.1317 31.2335 29.5517 33.1157C26.9717 34.9979 23.896 36.0814 20.706 36.2319L23.0314 33.9064C23.3616 33.5646 23.5443 33.1068 23.5402 32.6315C23.536 32.1563 23.3454 31.7017 23.0094 31.3656C22.6733 31.0296 22.2187 30.839 21.7435 30.8348C21.2682 30.8307 20.8104 31.0134 20.4686 31.3436L15.0311 36.7811C14.6913 37.121 14.5004 37.5819 14.5004 38.0625C14.5004 38.5431 14.6913 39.004 15.0311 39.3439L20.4686 44.7814C20.8104 45.1116 21.2682 45.2943 21.7435 45.2902C22.2187 45.286 22.6733 45.0954 23.0094 44.7594C23.3454 44.4233 23.536 43.9687 23.5402 43.4935C23.5443 43.0182 23.3616 42.5604 23.0314 42.2186L20.6752 39.8623C31.3454 39.4744 39.875 30.7019 39.875 19.9375C39.875 8.92656 30.9484 0 19.9375 0C8.92656 0 0 8.92656 0 19.9375C0 20.4182 0.19096 20.8792 0.530869 21.2191C0.870779 21.559 1.3318 21.75 1.8125 21.75C2.2932 21.75 2.75422 21.559 3.09413 21.2191C3.43404 20.8792 3.625 20.4182 3.625 19.9375Z" fill="white"/>
</svg>
